<?xml version="1.0" encoding="utf-8"?>
<!-- Generator: Adobe Illustrator 15.1.0, SVG Export Plug-In . SVG Version: 6.00 Build 0)  -->
<!DOCTYPE svg PUBLIC "-//W3C//DTD SVG 1.1//EN" "http://www.w3.org/Graphics/SVG/1.1/DTD/svg11.dtd">
<svg version="1.1" id="レイヤー_1" xmlns="http://www.w3.org/2000/svg" xmlns:xlink="http://www.w3.org/1999/xlink" x="0px"
	 y="0px" width="165.667px" height="182.667px" viewBox="0 0 165.667 182.667" enable-background="new 0 0 165.667 182.667"
	 xml:space="preserve">
<path fill="#FF8800" d="M37.335,39.868c-13,3.666-14.334-2.333-11.334-3s11-5.333,15-9.333L37.335,39.868z"/>
<path fill="#FF8800" d="M122.335,130.536c-5.667,21.666-28,42.332-53.334,48.332c-21.793,5.162-46-11.666-45.666-22
	c0.375-11.637,15-11,22.333,1.334c11.234,18.895,49.667,5.666,64-20.666L122.335,130.536z"/>
<path fill="#57A1BE" d="M39.863,43.8c-0.147,0.11-0.286,0.231-0.432,0.344c0.217-0.081,0.435-0.16,0.653-0.238
	C40.011,43.869,39.938,43.839,39.863,43.8z"/>
<path fill="#57A1BE" d="M54.505,41.552c-0.225-0.003-0.445-0.017-0.67-0.017c-4.824,0-9.451,0.84-13.75,2.37
	C45.567,46.629,50.341,44.541,54.505,41.552z"/>
<path fill="#FFD200" d="M87.335,140.618c8.132,0.723,21.492-0.783,35-10.082c24.383-16.789,22-68.667,14.333-90.333
	s-23.667-36.334-45.667-37s-40.333,9-50,24.333c-6.52,10.341-1.666,15.999,1.334,17.333s15.666-3.666,19.333-10.333
	c8.667,5.333,18.333,2.999,26.667,0.333l16,4.667c-12.667-5-28.668-2.001-37,5.333c-8.334,7.334-2.666,12.668,3.666,13.334
	c6.334,0.666,18.666-5,28.334-3c9.666,2,12.631,5.542,22.965,14.875c0,0,5.668,22.671,0,31.361
	c-9.824-5.668-27.583,0.756-32.873,12.848L87.335,140.618z"/>
<path d="M122.474,102.844c-0.143,0-0.286-0.02-0.429-0.063c-0.794-0.236-1.246-1.072-1.01-1.865
	c1.414-4.752,2.132-9.702,2.132-14.715c0-5.573-0.884-11.053-2.628-16.289c-0.262-0.786,0.163-1.635,0.949-1.897
	c0.785-0.261,1.635,0.164,1.896,0.949c1.847,5.542,2.782,11.341,2.782,17.237c0,5.303-0.759,10.541-2.257,15.57
	C123.717,102.422,123.12,102.844,122.474,102.844z"/>
<path d="M90,115.036c-0.222,0-0.447-0.049-0.66-0.154c-0.743-0.365-1.051-1.264-0.686-2.008
	c4.029-8.213,11.617-13.457,20.816-14.389c7.587-0.771,15.151,1.615,18.384,5.801c0.507,0.654,0.386,1.598-0.27,2.104
	c-0.654,0.506-1.599,0.387-2.104-0.27c-2.592-3.354-9.19-5.307-15.709-4.65c-4.787,0.484-13.546,2.783-18.425,12.727
	C91.087,114.727,90.554,115.036,90,115.036z"/>
<path d="M90.938,142.27c-1.497,0-2.756-0.072-3.735-0.158c-0.825-0.074-1.435-0.803-1.361-1.627c0.073-0.826,0.818-1.43,1.627-1.361
	c5.259,0.463,19.101,0.445,34.017-9.824c23.476-16.164,21.41-67.006,13.77-88.597c-7.879-22.266-24.025-35.387-44.298-36.001
	c-20.763-0.628-38.96,8.207-48.687,23.633c-2.659,4.219-3.578,8.054-2.655,11.09c0.672,2.212,2.214,3.576,3.33,4.073
	c1.89,0.841,13.915-3.332,17.409-9.686c0.198-0.359,0.534-0.623,0.932-0.727c0.398-0.104,0.82-0.042,1.169,0.173
	c8.204,5.048,17.426,2.741,25.424,0.182c0.792-0.251,1.633,0.183,1.886,0.972c0.252,0.789-0.183,1.633-0.972,1.886
	c-8.821,2.822-18.124,4.765-26.628,0.25c-4.732,6.572-16.742,11.333-20.438,9.692c-1.775-0.79-4.017-2.765-4.982-5.942
	c-0.824-2.716-0.976-7.273,2.989-13.562C50.031,10.399,69.212,1.033,91.046,1.703c21.578,0.653,38.722,14.503,47.036,37.999
	c3.594,10.156,6.513,28.819,4.933,47.621c-1.253,14.91-5.71,34.727-19.829,44.447C110.225,140.694,97.969,142.27,90.938,142.27z"/>
<path fill="#FF8800" d="M117.001,12.535c-5.989-0.485-1.333,4.001,0.667,5.667s16.333,14.666,29.667,10.666
	c13.333-4,17.334-14.999,14.666-15.666C159.335,12.535,129.335,13.535,117.001,12.535z"/>
<path d="M142.026,31.129c-0.001,0-0.001,0-0.002,0c-5.249,0-13.84-1.991-24.957-11.469l-0.359-0.305
	c-4.915-4.094-4.237-5.965-4.015-6.581c0.426-1.178,1.596-1.775,3.475-1.775c0.288,0,0.605,0.013,0.954,0.042
	c5.196,0.421,13.668,0.47,19.588,0.47c3.223,0,6.45-0.016,9.473-0.031c2.667-0.014,5.175-0.026,7.379-0.026
	c6.352,0,8.078,0.112,8.804,0.294c1.165,0.292,1.882,1.322,1.915,2.756c0.084,3.639-4.813,12.291-16.515,15.801
	C145.943,30.852,144.013,31.129,142.026,31.129z M115.746,14.015c0.391,0.639,1.35,1.758,2.882,3.035l0.386,0.327
	c10.422,8.886,18.266,10.751,23.011,10.752c0.001,0,0.002,0,0.002,0c1.694,0,3.335-0.235,4.878-0.697
	c7.32-2.197,11.817-6.733,13.584-10.247c0.659-1.313,0.793-2.175,0.793-2.58c-0.996-0.101-3.586-0.152-7.72-0.152
	c-2.2,0-4.702,0.012-7.363,0.026c-3.027,0.015-6.261,0.031-9.488,0.031c-5.972,0-14.525-0.05-19.83-0.48
	C116.418,13.993,116.01,13.993,115.746,14.015z"/>
<path d="M30.095,42.553c-3.393,0-5.089-1.027-5.903-1.85c-0.89-0.901-1.231-2.085-0.913-3.169c0.315-1.07,1.211-1.866,2.397-2.13
	c2.584-0.575,10.321-4.986,14.265-8.929c0.586-0.586,1.535-0.586,2.121,0c0.586,0.585,0.586,1.536,0,2.121
	c-4.132,4.132-12.367,8.988-15.735,9.737c-0.14,0.031-0.184,0.079-0.185,0.079c0.015-0.005,0.104,0.162,0.436,0.387
	c0.625,0.422,3.211,1.64,10.351-0.374c0.796-0.222,1.626,0.24,1.851,1.037c0.226,0.797-0.239,1.626-1.036,1.851
	C34.535,42.216,32.037,42.553,30.095,42.553z"/>
<path d="M59.001,25.868c-2.385,1.789-1.666,4.001,1,4.334c2.667,0.333,2.875,0.51,5.334-1.334c2.666-2,3-5.334,0-5
	S60.335,24.868,59.001,25.868z"/>
<circle cx="49.001" cy="27.202" r="3"/>
<circle cx="83.668" cy="18.869" r="3"/>
<path d="M60.676,181.315c-11.666,0-23.107-4.996-30.363-10.926c-5.52-4.512-8.609-9.459-8.477-13.57
	c0.159-4.936,2.645-8.385,6.82-9.461c5.302-1.369,13.294,1.656,18.301,10.078c4.123,6.932,11.614,8.277,17.141,8.156
	c16.47-0.313,35.494-12.684,44.253-28.773c0.396-0.729,1.308-0.998,2.034-0.602c0.728,0.396,0.997,1.307,0.601,2.035
	c-9.233,16.965-29.366,30.008-46.83,30.34c-9.007,0.148-15.985-3.248-19.776-9.623c-4.253-7.152-10.749-9.795-14.975-8.705
	c-2.832,0.729-4.455,3.092-4.57,6.652c-0.101,3.123,2.657,7.291,7.377,11.15c8.486,6.938,23.048,12.516,36.444,9.342
	c24.628-5.832,46.593-25.705,52.229-47.254c0.21-0.801,1.024-1.281,1.831-1.07c0.801,0.209,1.281,1.029,1.071,1.83
	c-5.9,22.559-28.795,43.34-54.439,49.414C66.483,181.006,63.572,181.315,60.676,181.315z"/>
<path d="M125.668,74.035c-0.359,0-0.719-0.127-1.006-0.387l-1.186-1.073c-9.7-8.771-15.555-14.065-24.445-15.905
	c-5.35-1.105-11.733,0.31-17.365,1.559c-4.269,0.948-7.954,1.768-10.822,1.464c-4.405-0.463-7.896-2.782-8.892-5.908
	c-0.701-2.202-0.509-5.731,4.392-10.044c9.155-8.058,26.085-10.519,38.542-5.602c0.771,0.304,1.148,1.175,0.845,1.946
	c-0.305,0.771-1.177,1.15-1.946,0.844c-11.5-4.538-27.074-2.315-35.458,5.064c-2.875,2.53-4.124,4.974-3.516,6.881
	c0.624,1.96,3.175,3.501,6.348,3.835c2.385,0.248,6.014-0.556,9.858-1.409c5.926-1.315,12.644-2.807,18.622-1.568
	c9.69,2.005,16.119,7.818,25.85,16.617l1.186,1.071c0.614,0.555,0.662,1.504,0.107,2.119
	C126.485,73.869,126.077,74.035,125.668,74.035z"/>
<g>
	<path fill="#FFD200" d="M19.335,100.868c-8.139-6.262-17.334-0.666-15.334,9c1.644,7.943,15.068,22.697,24.667,25
		c8.333,2,6.649-6.992,5.333-10C31.668,119.536,23.668,104.202,19.335,100.868z"/>
	<path d="M30.848,136.655L30.848,136.655c-0.77,0-1.621-0.109-2.529-0.328c-10.146-2.436-24.03-17.668-25.786-26.154
		c-0.785-3.795-0.064-7.303,2.03-9.875c1.851-2.271,4.648-3.576,7.677-3.576c2.726,0,5.496,1.023,8.011,2.959
		c4.938,3.799,13.317,20.453,15.125,24.586c0.752,1.719,2.245,6.879,0.153,10.078C34.839,135.399,33.467,136.655,30.848,136.655z
		 M12.239,99.721c-2.153,0-4.054,0.877-5.35,2.469c-1.515,1.861-2.019,4.479-1.42,7.375c1.528,7.385,14.656,21.711,23.548,23.844
		c0.68,0.164,1.296,0.246,1.83,0.246c1.387,0,1.902-0.543,2.17-0.951c1.084-1.66,0.47-5.268-0.391-7.234
		c-2.462-5.627-10.264-20.379-14.207-23.412C16.435,100.53,14.298,99.721,12.239,99.721z"/>
</g>
<g>
	<path fill="#FFD200" d="M90.001,135.202c0,0-2,11.666-13,11.666s-6.333-13.332-7.666-22c-1.334-8.666-6.667-20,1.333-25.332
		c8-5.334,17.667,10.332,19.333,16.332C92.335,123.868,92.001,128.87,90.001,135.202z"/>
	<path d="M77.001,148.868c-2.907,0-5.187-0.834-6.777-2.477c-3.051-3.156-2.873-8.508-2.701-13.684
		c0.087-2.613,0.177-5.314-0.164-7.535c-0.281-1.828-0.75-3.787-1.247-5.861c-1.852-7.738-3.951-16.508,3.447-21.439
		c1.419-0.947,2.96-1.426,4.581-1.426c8.687,0,16.344,13.686,17.788,18.887c2.57,8.809,1.962,14.152,0.02,20.346
		C91.099,140.323,86.936,148.868,77.001,148.868z M74.14,100.446c-0.829,0-1.602,0.246-2.362,0.754
		c-4.724,3.148-3.771,8.848-1.775,17.18c0.493,2.063,1.003,4.193,1.31,6.184c0.398,2.59,0.302,5.482,0.209,8.277
		c-0.145,4.344-0.294,8.834,1.578,10.77c0.819,0.846,2.096,1.258,3.902,1.258c9.145,0,10.957-9.602,11.03-10.01
		c0.015-0.086,0.036-0.176,0.063-0.258c1.783-5.646,2.309-10.213-0.013-18.172C86.596,111.081,79.534,100.446,74.14,100.446z"/>
</g>
<g>
	<path fill="#FFD200" d="M36.668,44.868c-3.333-1.333-11.667,4.334-10.667,9.667s7,5.333,11,1.333S39.899,46.16,36.668,44.868z"/>
	<path d="M30.839,60.219L30.839,60.219c-3.268,0-5.687-2.072-6.313-5.408c-0.407-2.173,0.365-4.571,2.176-6.752
		c2.351-2.833,6.062-4.889,8.824-4.889c0.622,0,1.193,0.103,1.698,0.305c1.838,0.735,3.212,2.521,3.676,4.779
		c0.623,3.031-0.438,6.274-2.839,8.674C35.971,59.02,33.338,60.219,30.839,60.219z M35.526,46.171c-1.615,0-4.565,1.455-6.516,3.804
		c-0.712,0.859-1.859,2.557-1.535,4.284c0.459,2.447,2.082,2.96,3.363,2.96c1.685,0,3.591-0.901,5.102-2.412
		c1.685-1.685,2.44-3.909,2.021-5.949c-0.26-1.267-0.952-2.238-1.851-2.598C35.964,46.202,35.762,46.171,35.526,46.171z"/>
</g>
</svg>
